<svg id="Layer_1" xmlns="http://www.w3.org/2000/svg" viewBox="0 0 310.8 168.3">
    <style>
        .st0{fill:#FFF}
    </style>
    <path class="st0" d="M0 2.9c0-.8.6-1.5 1.5-1.5h18.1c9.8 0 16.8 6.5 16.8 14.9 0 6.2-4.6 10.7-8.4 12.8 4.3 1.8 10.1 5.7 10.1 13.2 0 9-7.4 15.6-17.6 15.6h-19c-.9 0-1.5-.7-1.5-1.5V2.9zm20.4 47.6c4.9 0 8.7-3.8 8.7-8.8 0-4.9-4.7-8.5-9.9-8.5h-11v17.3h12.2zm-1.3-24.6c5.2 0 8.3-3.8 8.3-8.6 0-4.9-3.2-8.3-8.3-8.3H8.2v17h10.9zM126.6 2c0-.8.7-1.5 1.5-1.5h2l35.1 40.6h.1V2.9c0-.8.6-1.5 1.5-1.5h5.2c.8 0 1.5.7 1.5 1.5v54.4c0 .8-.7 1.5-1.5 1.5h-2.1L134.8 17h-.1v39.3c0 .8-.6 1.5-1.5 1.5h-5.1c-.8 0-1.5-.7-1.5-1.5V2zM257.6 55.3L282.4.9c.2-.5 1-.9 1.4-.9h.8c.4 0 1.1.4 1.4.9l24.6 54.4c.5 1.1-.2 2.1-1.4 2.1h-5.1c-1 0-1.5-.5-1.9-1.2l-5-11.1h-26.4c-1.6 3.7-3.3 7.4-4.9 11.1-.2.6-.9 1.2-1.9 1.2h-5c-1.2 0-1.8-1.1-1.4-2.1zm36.6-17.2L284.3 16h-.4L274 38.1h20.2zM0 86.4c0-.8.6-1.5 1.5-1.5h22c9.7 0 17.6 7.7 17.6 17.3 0 7.4-4.9 13.6-12 16.4l11.1 20.5c.6 1.1 0 2.3-1.4 2.3h-6.3c-.6 0-1.1-.4-1.3-.7l-10.7-21.4H8.3v20.6c0 .8-.7 1.5-1.5 1.5H1.5c-.9 0-1.5-.7-1.5-1.5V86.4zm22.9 25.9c5.3 0 9.9-4.4 9.9-10 0-5.3-4.6-9.6-9.9-9.6H8.5v19.6h14.4zM150 84.8c16.2 0 29.1 13 29.1 29.2s-12.9 29-29.1 29c-16.2 0-29-12.8-29-29s12.9-29.2 29-29.2zm0 50.1c11.6 0 21-9.4 21-20.9 0-11.5-9.5-21.1-21-21.1s-20.9 9.6-20.9 21.1c0 11.5 9.5 20.9 20.9 20.9zM60.7 28c0-.8.7-1.5 1.5-1.5h5.4c.9 0 1.5.7 1.5 1.5v33.4c0 8.1 5.2 14.4 13.4 14.4 8.3 0 13.6-6.2 13.6-14.2V28c0-.8.6-1.5 1.5-1.5h5.4c.8 0 1.5.7 1.5 1.5v33.9c0 12.3-9.3 21.9-22.1 21.9-12.7 0-21.9-9.6-21.9-21.9V28zM219.3 25.7c7.8 0 14.1 2.8 19.6 7.5.6.6.7 1.6.1 2.3-1.2 1.3-2.4 2.5-3.6 3.8-.6.7-1.3.6-2.1-.1-3.8-3.3-8.8-5.5-13.7-5.5-11.5 0-20.3 9.7-20.3 21 0 11.2 8.8 20.9 20.3 20.9 6.7 0 11.3-2.4 12.1-2.7v-9h-7.9c-.9 0-1.5-.6-1.5-1.5v-4.7c0-.9.6-1.5 1.5-1.5h14.7c.8 0 1.5.7 1.5 1.5 0 6.5.1 13.1.1 19.6 0 .4-.3 1.1-.6 1.3 0 0-8.3 5.3-20 5.3-16.1 0-29.1-12.8-29.1-29s12.9-29.2 28.9-29.2zM82.6 109.2c16.2 0 29.1 13 29.1 29.2s-12.9 29-29.1 29c-16.2 0-29-12.8-29-29s12.8-29.2 29-29.2zm0 50.1c11.6 0 21-9.4 21-20.9 0-11.5-9.5-21.1-21-21.1s-20.9 9.6-20.9 21.1c0 11.5 9.4 20.9 20.9 20.9zM197.4 158.4c.7-1.1 1.4-2.3 2.1-3.3.7-1.1 1.9-1.4 2.7-.6.5.4 6.7 5.6 12.9 5.6 5.6 0 9.1-3.4 9.1-7.5 0-4.8-4.2-7.9-12.2-11.2-8.2-3.5-14.7-7.8-14.7-17.1 0-6.3 4.8-14.9 17.7-14.9 8.1 0 14.1 4.2 14.9 4.8.6.4 1.3 1.5.5 2.7-.6 1-1.4 2.1-2 3.1-.6 1.1-1.7 1.5-2.8.8-.6-.3-6.2-4-10.9-4-6.8 0-9.1 4.3-9.1 7.3 0 4.6 3.6 7.4 10.3 10.2 9.4 3.8 17.4 8.2 17.4 18.1 0 8.4-7.5 15.3-18 15.3-9.9 0-16.1-5.2-17.4-6.4-.7-1-1.3-1.5-.5-2.9zM261 86.3c0-.8.7-1.5 1.5-1.5h5.3c.9 0 1.5.7 1.5 1.5v22.5h29.6V86.3c0-.8.6-1.5 1.5-1.5h5.3c.8 0 1.5.7 1.5 1.5v53.5c0 .8-.7 1.5-1.5 1.5h-5.3c-.9 0-1.5-.7-1.5-1.5v-23.3h-29.6v23.3c0 .8-.6 1.5-1.5 1.5h-5.3c-.8 0-1.5-.7-1.5-1.5V86.3z"/>
</svg>
